<svg xmlns="http://www.w3.org/2000/svg" viewBox="0 0 432 288"><path d="M170.72 111.52L124.25 86c-3.3-1.8-7.52.45-7.52 4.32v52.22c.1 3.3 1.44 5.13 4.14 6.77l92.6 54.64-2.48-4.32v53.67l7.52-4.32-94.27-54.32v8.63l63.1-36.76 123.44-71.9c3.23-1.88 3.26-6.76 0-8.63l-93.27-53.67c-3.28-1.9-7.52.5-7.52 4.32V71.6c0 5.5-.24 11.04 0 16.53.14 3.32 1.83 4.8 4.4 6.33l91.35 54.8-2.48-4.32v54l7.52-4.32-140.07-83.12c-5.55-3.3-10.58 5.35-5.05 8.63l140.07 83.12c3.27 1.94 7.52-.55 7.52-4.32v-52.53c-.08-3.16-1.32-5.02-3.9-6.65-22.17-13.93-44.96-26.97-67.4-40.45l-24.43-14.66 2.48 4.32V36.62l-7.52 4.32 93.27 53.67v-8.63L119.2 194.64c-3.23 1.88-3.26 6.76 0 8.63l94.27 54.32c3.28 1.9 7.52-.5 7.52-4.32v-52.2c-.1-3.3-1.44-5.13-4.14-6.77l-92.6-54.64 2.48 4.32V90.3l-7.52 4.32 46.47 25.53c5.64 3.1 10.7-5.52 5.04-8.62z"/><path d="M124.25 94.63l93.27-53.67c5.58-3.2.55-11.85-5.05-8.63L119.2 86c-5.57 3.2-.54 11.84 5.05 8.63h0z"/><path d="M124.25 148.32l93.27-55c5.54-3.27.5-11.9-5.05-8.63l-93.27 55c-5.54 3.26-.5 11.9 5.05 8.63h0zm94.27 55.62l92.27-54.65c5.53-3.28.5-11.93-5.05-8.63l-92.27 54.65c-5.53 3.27-.5 11.92 5.05 8.63h0z"/><path d="M218.52 257.6l92.27-54.33c5.54-3.26.52-11.9-5.05-8.63l-92.27 54.33c-5.54 3.26-.5 11.9 5.05 8.63h0z"/><g fill="none" stroke="#000" stroke-width="5" stroke-linecap="round" stroke-linejoin="round"><path d="M215.54 143.94a3.42 3.42 0 0 1-.05-1.59m5.83 3.45c1.62-1.23 1.72-4 .2-5.34m7.15 9.7c3.02-3.82 3.1-10.07.18-13.98m-20.7 1.8c-1.5 3.07-1.5 7.17.05 10.23m27.73 6.24c4.53-6.3 4.62-16.13.2-22.52m-35.23 1.75c-3.03 5.54-3.02 13.23.02 18.76m-7.27 4.24c-4.53-8-4.53-19.3.01-27.3m49.5 29.36c6.06-8.76 6.17-22.18.24-31.04m-56.96-2.62c-6.08 10.46-6.1 25.34-.05 35.82m64 2.13c7.6-11.2 7.72-28.23.27-39.56m-71.52 41.66c-7.57-12.94-7.53-31.42.08-44.33m78.4 46.52c9.13-13.67 9.27-34.28.3-48.08m7.28-4.24c-9.63-15.9-27.53-26.5-47.43-25.94m49.5 29.72c8.05 15.17 7.5 36.13-1.23 50.82m-52.17 27.18c-16.35-1.55-30.58-10.4-39.4-23.24M172 116.53c-9.15 15.36-9.2 37.44-.12 52.85m92.96 2.25l1.2-2.02m6.02 6.3a61.88 61.88 0 0 0 6.32-13.62m.62-36.47c3.42 11.52 3.18 25.1-.6 36.46M217 205.4c-22.5-.72-42-13.35-52.4-31.8m-3.8-53.02c-5.54 13.78-5.54 31.13-.01 44.9m3.9-53.08a60.87 60.87 0 0 0-3.87 8.2M216 80.73c23.48-1.23 45.13 11.17 56.44 30.07m16.48 21a70.81 70.81 0 0 1-.35 24.47M150.1 126.9c-2.48 10.3-2.48 21.98-.01 32.28m129.2 21.02c4.46-7.22 7.65-15.3 9.28-23.94m-131.26-47.9c-3.23 5.74-5.7 11.97-7.22 18.55M216 72.33c26.58-1.25 50.93 12.86 63.7 34.24M217 213.8c-25.6-.72-47.8-15.02-59.64-35.97M217 222.2c-28.7-.72-53.6-16.7-66.9-40.15m147.88-44.82c.36 4.47.3 9.1-.14 13.54m-157.3-18.24c-.94 6.85-.95 14.16 0 21m9.42-49.23a78.69 78.69 0 0 0-9.42 28.23M216 63.93c29.68-1.27 56.73 14.55 70.96 38.4m-.44 82.17a78.57 78.57 0 0 0 11.32-33.72m8.74-5.18l.03-3.2m-175.03-4.58a86.58 86.58 0 0 0 0 10.44M294.22 98.1C278.54 71.74 248.77 54.28 216 55.5m-73.42 44.75c-6.3 11.23-10.2 23.98-11 37.57m85.42 92.8c-31.8-.72-59.42-18.4-74.18-44.33"/><path d="M306.58 145.6c-.45 15.8-5.08 30.55-12.83 43.2M217 239.03c-13.88-.3-27.03-3.52-38.86-9.1m-13.64-7.86c-11.85-8.2-21.77-18.98-28.94-31.55M216 47.1c8-.27 16.1.5 23.66 2.18m50 28.8a96.35 96.35 0 0 1 11.81 15.82m-166.26 2.3a95.56 95.56 0 0 0-12.19 46.66m186.24 32.98a96.33 96.33 0 0 1-8.3 17.23m-177.95-50.2v.35m12.04 61.9a103.46 103.46 0 0 1-6.76-10.36M308.74 89.66l-.56-.94m-185.45 13.94c1.52-3.6 3.23-7.1 5.13-10.5M216 38.7l5.23-.02M217 247.43l-9.57-.62m101.84-51.25l-1.07 1.8m-35.76-86.56l7.26-4.23M217 230.63v-8.43"/><path d="M164.5 222.07l13.64 7.86m38.86 22.4l-9.57-5.52m-35.56-77.43l-2.26 1.3m47.4 76.75v-8.4"/><path d="M217 252.33v-4.9m0-8.4v-8.4m-88.7-35.88l-5.57 3.25 12.33 7.1m22.26-96.75l7.36 4.04"/><path d="M164.5 222.07l-29.44-16.96M216 55.5v-8.4m0 0v-8.4m-87.7 156.05l7.26-4.23m85.67-151.84l-5.23-3m0 28.25v8.4m-73.42 27.92l7.38 4.05m28.18 125.63l29.3 16.88M216 55.5v8.42m0 8.4v8.4m-84.42 67.53l8.95 5.28m9.57 5.64l10.7 6.32m-38.07-22.46l.3.17m-.3-53.86v13.3m12.5-6.45l-7.37-4.05m51.35 28.67l-7.22-4.3"/><path d="M122.73 89.35l5.12 2.8m36.75 81.45l5-2.9m4.87 2.86l-4.86-2.87m-46.88-68.03v40.38"/><path d="M169.6 170.7l-8.8-5.2m9.04-50.25l2.15 1.28m-40.4 31.73l-8.56-5.05M217 213.8v-8.4m55.06-29.48l-7.22-4.3m21.68 12.88l-7.23-4.28M217 222.2v-8.4m-59.64-35.97l-7.26 4.23m-7.28 4.24l-7.26 4.23m128.17-19.56l-6.12-3.63m-107.5-8.16l-9.56-5.64m73.32 43.26l3.14 1.85m0 6.75v-6.75m91.2-1.3l1.07.64m-1.07-.64l-7.23-4.3m8.3 2.5v-19.72"/><path d="M309.27 195.56V198m-45.54-27.03l1.1.66m7.23 4.3l7.23 4.3m27.3-37.82l2.66 1.6m-.52-54.34l-7.26 4.22m-7.26 4.22l7.26-4.23m-34.22 24.93l-4.2-2.52m46.2 27.72v31.84"/><path d="M250.38 163.05l7.23 4.3m7.57-52.33l-2.13 1.25m4.2 2.53l11.73 7.04m-35.6 1.88l7.27-4.23m12.38-7.22l-5.13 3m-115.1 67.03l7.28-4.23M216 80.73v7.3m73.67-9.96l-50-28.78m-97.1 50.96l-7.36-4.04m34.62 19.04c-.2-.16-4.77-2.65-5.16-2.86m-7.36-4.04l-7.36-4.05M216 38.7v-3.03m92.74 54l.53-.3-1.1-.63m-18.5-10.66l18.5 10.65m-68.5-39.42l-18.43-10.6m65.73 63.64l-7.26 4.23"/><path d="M306.6 142.4l-8.63-5.17m-9.05-5.43l-9.93-5.96m14.76 62.96l-7.23-4.3m7.7-86.4l-7.26 4.23m-69.2-13.23L216 88.04m84.97 105.03l-7.22-4.28m-21.3-78l-7.26 4.22M217.75 89.1l45.3 27.18m-34.2 19.92l7.27-4.24m-20.58 11.98l-7.34 4.28m-.05-10.22l-7.24-4.3m20.4 12.1l7.35 4.37m-13.13-6.23l1.33-.78m26.53-15.44l-7.27 4.23m7.03 26.8l-7.23-4.3m-49.5-29.36l7.22 4.3"/><path d="M200.93 152.45l-7.28 4.24m7.25-23l-7.25-4.3m-14.52 35.75l7.26-4.23m-7.26 4.23l-7.26 4.23m42 27.42l-39.4-23.24m-17.1 4.27l7.25-4.23m43.54-35.6l7.34 4.36m.01-.01l1.38.8"/><path d="M221.5 140.46l-4.64 2.7m-15.93 9.3l7.27-4.23m13.12-2.42l-4.45-2.64m11.8 7l7.26 4.3m-49.5-29.37l-7.23-4.28m14.44 35.88l-7.26 4.23m35.1-20.47l7.34-4.27m14.32 22.57l7.22 4.3m38.54-31.26l9.06 5.44m-47.32-13.74l7.26-4.23m-124.4-36.14l-10.8 6.22m34.87-20.07l28.63-16.48"/><path d="M186.23 52.8l23.93-13.77m0 0l5.84-3.36m-58.4 33.6l-24.07 13.85m-10.5 59.92l92.98-55m1 164.28L309.27 198m-92.27.65L309.27 144"/></g></svg>